<svg width="64" height="65" viewBox="0 0 64 65" fill="none" xmlns="http://www.w3.org/2000/svg">
<path fill-rule="evenodd" clip-rule="evenodd" d="M31.9474 0C29.186 0 26.9474 2.23858 26.9474 5V27.3684H5C2.23858 27.3684 0 29.607 0 32.3684V32.6316C0 35.393 2.23858 37.6316 5 37.6316H26.9474V60C26.9474 62.7614 29.186 65 31.9474 65H32.0527C34.8141 65 37.0527 62.7614 37.0527 60V37.6316H59C61.7614 37.6316 64 35.393 64 32.6316V32.3684C64 29.607 61.7614 27.3684 59 27.3684H37.0527V5C37.0527 2.23858 34.8141 0 32.0527 0H31.9474Z" fill="#F0F0FF"/>
</svg>
