<svg width="63" height="53" viewBox="0 0 63 53" fill="none" xmlns="http://www.w3.org/2000/svg">
<path fill-rule="evenodd" clip-rule="evenodd" d="M1 0C0.447715 0 0 0.447716 0 1V4.88889C0 5.44117 0.447715 5.88889 1 5.88889H62C62.5523 5.88889 63 5.44117 63 4.88889V1C63 0.447715 62.5523 0 62 0H1ZM59.6842 7.85185L46.3983 53H17.3756L3.31579 7.85185H59.6842ZM47.7056 15.0194L39.0316 46.8785L37.3685 46.3944L44.4757 14.0792L47.7056 15.0194ZM18.9659 14.175L26.1174 46.4773L24.4544 46.9614L15.7359 15.1152L18.9659 14.175ZM32.7005 47.2916L33.4886 14.0792H30.1447L30.9788 47.2916H32.7005Z" fill="#F0F0FF"/>
</svg>
