<?xml version="1.0" encoding="UTF-8" standalone="no"?>
<!-- Created with Inkscape (http://www.inkscape.org/) -->

<svg
   xmlns:dc="http://purl.org/dc/elements/1.1/"
   xmlns:cc="http://creativecommons.org/ns#"
   xmlns:rdf="http://www.w3.org/1999/02/22-rdf-syntax-ns#"
   xmlns:svg="http://www.w3.org/2000/svg"
   xmlns="http://www.w3.org/2000/svg"
   xmlns:sodipodi="http://sodipodi.sourceforge.net/DTD/sodipodi-0.dtd"
   xmlns:inkscape="http://www.inkscape.org/namespaces/inkscape"
   width="95.869705mm"
   height="95.869667mm"
   viewBox="0 0 95.869707 95.869664"
   version="1.1"
   id="svg8"
   inkscape:version="0.92.3 (2405546, 2018-03-11)"
   sodipodi:docname="instrumentm_framework.svg">
  <defs
     id="defs2" />
  <sodipodi:namedview
     id="base"
     pagecolor="#ffffff"
     bordercolor="#666666"
     borderopacity="1.0"
     inkscape:pageopacity="0.0"
     inkscape:pageshadow="2"
     inkscape:zoom="1.0041992"
     inkscape:cx="-107.76316"
     inkscape:cy="229.58924"
     inkscape:document-units="mm"
     inkscape:current-layer="layer1"
     showgrid="false"
     inkscape:snap-smooth-nodes="false"
     inkscape:object-nodes="false"
     fit-margin-top="2"
     fit-margin-left="2"
     fit-margin-right="2"
     fit-margin-bottom="2"
     inkscape:window-width="1920"
     inkscape:window-height="1015"
     inkscape:window-x="0"
     inkscape:window-y="0"
     inkscape:window-maximized="1" />
  <metadata
     id="metadata5">
    <rdf:RDF>
      <cc:Work
         rdf:about="">
        <dc:format>image/svg+xml</dc:format>
        <dc:type
           rdf:resource="http://purl.org/dc/dcmitype/StillImage" />
        <dc:title></dc:title>
      </cc:Work>
    </rdf:RDF>
  </metadata>
  <g
     inkscape:label="Ebene 1"
     inkscape:groupmode="layer"
     id="layer1"
     transform="translate(-14.939024,-13.049562)">
    <g
       aria-label="if"
       style="font-style:normal;font-variant:normal;font-weight:bold;font-stretch:normal;font-size:17.73581505px;line-height:1.25;font-family:Aileron;-inkscape-font-specification:'Aileron, Bold';font-variant-ligatures:normal;font-variant-caps:normal;font-variant-numeric:normal;font-feature-settings:normal;text-align:start;letter-spacing:0px;word-spacing:0px;writing-mode:lr-tb;text-anchor:start;fill:#32324d;fill-opacity:1;stroke:none;stroke-width:0.22169766"
       id="text895"
       transform="matrix(2.796568,0,0,2.796568,-51.854739,-384.92292)">
      <path
         id="path913"
         style="font-style:italic;font-variant:normal;font-weight:bold;font-stretch:normal;font-size:17.73581505px;font-family:Aileron;-inkscape-font-specification:'Aileron, Bold Italic';font-variant-ligatures:normal;font-variant-caps:normal;font-variant-numeric:normal;font-feature-settings:normal;text-align:start;writing-mode:lr-tb;text-anchor:start;stroke-width:0.22169766"
         d="m 42.744244,155.4762 c 0.21283,-0.63849 0.780376,-0.97547 1.578487,-0.97547 0.177358,0 0.390188,0.0177 0.620754,0.0709 l 0.319245,-1.70264 c -0.407924,-0.071 -0.886791,-0.12415 -1.73811,-0.12415 -1.596224,0 -2.71358,0.85132 -3.174711,2.53622 -0.08868,0.31924 -0.177358,0.7449 -0.248302,1.08188 l -0.07094,0.39019 h -0.851319 l -0.266037,1.61396 h 0.833583 l -1.365658,7.75055 h 2.447543 l 1.365657,-7.75055 h 1.915469 l 0.283773,-1.61396 h -1.933204 l 0.08868,-0.46113 c 0.03547,-0.2483 0.106415,-0.4966 0.195094,-0.81585 z m -7.140883,-2.30565 c -0.798111,0 -1.347922,0.53207 -1.347922,1.29471 0,0.78038 0.549811,1.29472 1.347922,1.29472 0.798112,0 1.347922,-0.51434 1.347922,-1.29472 0,-0.76264 -0.54981,-1.29471 -1.347922,-1.29471 z m 1.223772,12.94714 v -9.43545 H 34.37959 v 9.43545 z m -12.22778,-23.09507 v 32.85086 h 32.850875 v -32.85086 z m 2.849312,2.84932 h 27.152246 v 27.15223 H 27.448665 Z m 23.09969,15.85041 v 7.24927 h -7.249287 v 1.99001 h 9.239289 v -9.23928 z m -21.037129,0 v 9.23928 h 9.23929 v -1.99001 h -7.249287 v -7.24927 z m 13.787842,-13.78787 v 1.99001 h 7.249287 v 7.24927 h 1.990002 v -9.23928 z m -13.787842,0 v 9.23928 h 1.990003 v -7.24927 h 7.249287 v -1.99001 z"
         inkscape:connector-curvature="0" />
    </g>
  </g>
</svg>
