<svg width="34" height="34" viewBox="0 0 34 34" fill="none" xmlns="http://www.w3.org/2000/svg">
<path fill-rule="evenodd" clip-rule="evenodd" d="M34 17C34 26.3888 26.3888 34 17 34C7.61116 34 0 26.3888 0 17C0 7.61116 7.61116 0 17 0C26.3888 0 34 7.61116 34 17ZM30.6374 17C30.6374 24.5317 24.5317 30.6374 17 30.6374C9.4683 30.6374 3.36264 24.5317 3.36264 17C3.36264 9.46829 9.4683 3.36263 17 3.36263C24.5317 3.36263 30.6374 9.46829 30.6374 17ZM16.921 21.8101C16.0992 22.6319 14.7679 22.6339 13.9437 21.816C13.7293 21.715 13.5284 21.5759 13.3512 21.3987L10.368 18.4155C9.54419 17.5917 9.54419 16.2561 10.368 15.4323C11.1918 14.6085 12.5274 14.6085 13.3512 15.4323L15.3418 17.4229L20.9022 11.8625C21.726 11.0387 23.0616 11.0387 23.8854 11.8625C24.7092 12.6863 24.7092 14.0219 23.8854 14.8457L16.921 21.8101Z" fill="#F0F0FF" fill-opacity="0.7"/>
</svg>
