<svg width="75" height="75" viewBox="0 0 75 75" fill="none" xmlns="http://www.w3.org/2000/svg">
<path fill-rule="evenodd" clip-rule="evenodd" d="M61.4844 0.707115C61.0939 0.316591 60.4607 0.316591 60.0702 0.707115L52.9508 7.82655C52.5602 8.21707 52.5602 8.85024 52.9508 9.24076L62.9147 19.2047C63.3053 19.5953 63.9384 19.5953 64.3289 19.2047L71.4484 12.0853C71.8389 11.6948 71.8389 11.0616 71.4484 10.6711L61.4844 0.707115ZM51.0544 11.1371C50.6639 10.7466 50.0307 10.7466 49.6402 11.1371L8.38618 52.3911C7.99566 52.7816 7.99566 53.4148 8.38618 53.8053L18.3502 63.7693C18.7407 64.1598 19.3739 64.1598 19.7644 63.7693L61.0184 22.5153C61.4089 22.1248 61.4089 21.4916 61.0184 21.1011L51.0544 11.1371ZM68.6039 17.7744C68.9944 17.3838 69.6316 17.3879 70.0221 17.7784C70.4126 18.1689 70.4167 18.8061 70.0261 19.1966L52.4767 36.7461C52.0862 37.1366 51.449 37.1326 51.0584 36.7421C50.6679 36.3515 50.6639 35.7143 51.0544 35.3238L68.6039 17.7744ZM5.61291 65.3622C5.46882 66.0652 6.09027 66.6867 6.79332 66.5426L15.8824 64.6798C16.6627 64.5199 16.952 63.5563 16.3887 62.9931L9.1624 55.7668C8.59916 55.2035 7.63558 55.4928 7.47566 56.2731L5.61291 65.3622Z" fill="#F0F0FF"/>
</svg>
