<svg width="68" height="68" viewBox="0 0 68 68" fill="none" xmlns="http://www.w3.org/2000/svg">
<path fill-rule="evenodd" clip-rule="evenodd" d="M68 34C68 52.7777 52.7777 68 34 68C15.2223 68 0 52.7777 0 34C0 15.2223 15.2223 0 34 0C52.7777 0 68 15.2223 68 34ZM63.6129 33.8433C63.6129 50.1115 50.4249 63.2995 34.1567 63.2995C17.8885 63.2995 4.70046 50.1115 4.70046 33.8433C4.70046 17.5751 17.8885 4.3871 34.1567 4.3871C50.4249 4.3871 63.6129 17.5751 63.6129 33.8433ZM43.871 23.8157C43.871 29.1807 39.5217 33.5299 34.1567 33.5299C28.7916 33.5299 24.4424 29.1807 24.4424 23.8157C24.4424 18.4506 28.7916 14.1014 34.1567 14.1014C39.5217 14.1014 43.871 18.4506 43.871 23.8157ZM52.0353 49.0804C53.2306 47.8337 53.8986 46.4416 53.8986 44.973C53.8986 39.6312 45.0599 35.3008 34.1567 35.3008C23.2535 35.3008 14.4148 39.6312 14.4148 44.973C14.4148 46.4416 15.0828 47.8337 16.2781 49.0804H52.0353Z" fill="#F0F0FF" fill-opacity="0.7"/>
</svg>
